<?xml version="1.0" encoding="UTF-8" standalone="no"?>
<!DOCTYPE svg PUBLIC "-//W3C//DTD SVG 1.1//EN" "http://www.w3.org/Graphics/SVG/1.1/DTD/svg11.dtd">
<svg xmlns="http://www.w3.org/2000/svg" version="1.1" viewBox="0.00 0.00 650.00 650.00">
<path fill="#3b4147" d="
  M 223.73 100.97
  A 0.73 0.73 0.0 0 0 223.06 101.66
  Q 222.79 107.18 223.13 111.98
  Q 226.73 162.93 230.74 210.03
  Q 231.63 220.52 232.26 229.99
  Q 234.57 265.28 236.31 283.66
  Q 236.80 288.81 239.70 294.30
  C 242.77 300.13 248.84 305.05 253.30 310.15
  Q 259.74 317.53 264.82 325.97
  Q 268.43 331.96 271.15 340.78
  C 273.71 349.08 273.41 359.53 273.25 368.76
  Q 273.20 371.57 271.93 373.50
  Q 267.41 380.40 259.87 385.43
  C 257.09 387.28 251.08 389.18 248.05 386.40
  C 245.57 384.10 242.01 380.77 238.50 380.24
  Q 233.81 379.53 229.96 379.65
  Q 227.69 379.71 225.51 379.73
  Q 175.91 380.10 122.72 379.97
  Q 120.69 379.97 118.43 380.07
  C 108.71 380.51 108.34 393.99 109.41 400.80
  C 109.96 404.34 112.34 403.92 115.58 403.93
  Q 169.33 404.09 222.75 403.90
  Q 224.93 403.90 227.41 404.30
  C 232.27 405.09 236.03 409.50 234.76 414.62
  Q 233.93 417.95 231.43 420.25
  Q 226.63 424.68 221.03 427.95
  C 218.10 429.67 217.00 433.14 216.90 436.33
  Q 216.87 437.01 216.20 436.87
  Q 209.54 435.41 202.76 434.04
  C 190.75 431.62 178.38 431.44 166.31 432.52
  Q 151.94 433.80 136.47 440.43
  Q 127.48 444.29 121.08 449.44
  Q 119.99 450.31 119.99 451.74
  Q 120.01 491.68 119.99 530.43
  A 2.00 1.98 82.9 0 1 118.50 532.36
  C 112.85 533.80 109.42 536.94 108.20 542.96
  Q 106.71 550.33 112.65 556.34
  Q 114.24 557.95 113.10 559.90
  Q 111.03 563.43 110.13 567.25
  C 109.39 570.34 112.28 574.84 113.97 577.39
  C 115.79 580.14 115.54 582.36 113.01 584.74
  C 109.79 587.77 105.33 589.38 100.96 588.43
  C 99.40 588.09 97.60 587.91 96.20 587.13
  Q 82.75 579.58 82.80 563.89
  Q 83.13 466.37 82.80 364.37
  Q 82.79 360.41 83.22 356.37
  C 83.63 352.57 83.92 348.93 84.88 345.19
  C 88.29 331.77 94.68 321.29 103.55 311.45
  C 110.69 303.54 121.34 294.69 122.01 283.23
  C 122.13 281.14 122.59 279.07 122.68 277.01
  Q 122.90 271.83 123.43 265.18
  Q 128.66 200.54 134.47 118.66
  Q 134.88 112.90 135.04 106.60
  C 135.07 105.07 135.41 103.87 135.96 102.48
  A 1.09 1.09 0.0 0 0 134.87 100.99
  C 133.14 101.12 131.35 101.15 130.05 99.77
  Q 128.19 97.79 126.57 96.04
  A 1.83 1.82 -67.8 0 1 126.11 94.94
  Q 125.39 81.34 126.43 74.53
  Q 128.46 61.25 140.96 56.66
  Q 142.53 56.08 145.97 55.90
  Q 171.13 54.53 188.41 55.16
  Q 201.23 55.62 213.27 55.95
  C 215.11 56.01 216.85 56.07 218.57 56.76
  Q 226.05 59.77 230.09 66.96
  Q 232.99 72.13 233.13 78.76
  Q 233.29 86.02 233.14 93.12
  C 233.04 97.82 227.83 100.64 223.73 100.97
  Z
  M 198.06 130.00
  A 0.89 0.89 0.0 0 0 198.94 129.04
  L 196.80 101.81
  A 0.89 0.89 0.0 0 0 195.92 100.99
  L 161.95 101.00
  A 0.89 0.89 0.0 0 0 161.06 101.85
  L 159.77 129.06
  A 0.89 0.89 0.0 0 0 160.66 129.99
  L 198.06 130.00
  Z
  M 149.15 275.14
  A 0.84 0.84 0.0 0 0 149.99 276.04
  L 208.83 276.01
  A 0.84 0.84 0.0 0 0 209.67 275.10
  L 201.12 165.79
  A 0.84 0.84 0.0 0 0 200.28 165.02
  L 157.79 164.96
  A 0.84 0.84 0.0 0 0 156.95 165.74
  L 149.15 275.14
  Z"
/>
<path fill="#3b4147" d="
  M 509.76 356.87
  L 510.23 356.78
  Q 510.30 356.77 510.26 356.83
  Q 509.75 357.59 510.26 358.27
  Q 514.81 364.45 519.20 370.63
  Q 554.41 420.20 566.07 480.39
  Q 567.87 489.65 568.93 500.18
  Q 572.16 531.93 570.57 564.98
  Q 570.10 574.88 562.36 582.36
  C 557.75 586.81 551.93 588.27 545.74 588.75
  C 536.13 589.49 526.84 589.11 517.30 589.10
  Q 347.59 588.91 171.52 589.04
  Q 164.05 589.05 155.50 587.70
  C 150.55 586.91 145.73 582.16 143.15 578.09
  C 135.81 566.51 141.67 557.05 150.21 547.96
  Q 160.65 536.84 170.62 525.47
  C 183.78 510.46 197.21 495.71 210.40 480.76
  Q 217.24 473.00 223.73 465.85
  Q 266.53 418.62 308.48 370.72
  Q 312.69 365.92 317.00 361.01
  Q 348.86 324.68 385.60 283.84
  Q 394.98 273.41 409.14 276.26
  Q 416.20 277.68 423.05 281.72
  Q 446.49 295.53 463.61 310.15
  Q 474.15 319.15 481.72 326.21
  Q 484.64 328.93 486.78 331.97
  Q 487.59 333.11 488.81 333.91
  C 490.02 334.69 490.56 336.04 491.63 337.06
  Q 494.66 339.97 497.21 342.91
  Q 503.21 349.80 508.98 356.59
  Q 509.29 356.95 509.76 356.87
  Z
  M 491.80 451.05
  Q 487.04 439.04 481.51 429.04
  Q 463.66 396.77 436.14 370.58
  C 420.25 355.45 402.10 342.73 382.70 331.31
  Q 380.62 330.09 378.26 330.40
  A 1.17 1.15 12.9 0 0 377.45 330.90
  C 372.33 338.48 365.93 344.46 360.01 351.19
  C 345.69 367.48 331.04 383.41 316.40 399.99
  C 309.19 408.15 301.62 416.10 294.30 424.54
  Q 275.59 446.11 254.31 469.41
  Q 247.74 476.60 240.93 484.27
  Q 210.08 519.00 179.09 553.53
  C 177.81 554.96 176.22 557.78 177.29 559.70
  Q 178.61 562.05 181.75 562.05
  Q 344.12 562.04 506.18 562.00
  A 0.81 0.81 0.0 0 0 506.99 561.19
  Q 507.01 542.00 506.74 522.75
  C 506.67 517.39 506.19 512.03 505.64 506.77
  Q 502.73 478.66 491.80 451.05
  Z"
/>
<circle fill="#3b4147" cx="389.24" cy="410.20" r="38.20"/>
<circle fill="#3b4147" cx="324.80" cy="437.11" r="8.50"/>
<ellipse fill="#3b4147" cx="0.00" cy="0.00" transform="translate(451.00,445.52) rotate(90.1)" rx="8.64" ry="8.27"/>
<circle fill="#3b4147" cx="309.39" cy="508.11" r="38.17"/>
<circle fill="#3b4147" cx="428.97" cy="508.57" r="38.30"/>
<ellipse fill="#3b4147" cx="0.00" cy="0.00" transform="translate(244.20,538.94) rotate(28.8)" rx="8.55" ry="8.29"/>
<circle fill="#3b4147" cx="367.94" cy="539.04" r="8.32"/>
</svg>
